<svg width="101" height="78" viewBox="0 0 101 78" fill="none" xmlns="http://www.w3.org/2000/svg">
<path d="M19.9043 58.7877C20.1637 58.8121 20.2026 59.2344 20.3412 59.4306C20.7635 59.3917 20.4652 58.945 20.3266 58.7488C20.8454 58.7975 21.382 59.2142 21.6471 59.7362C21.7403 60.1375 21.2669 59.8837 21.3423 59.917C21.1728 60.6076 22.2226 60.5752 21.8059 61.1118C21.4468 61.3136 21.1031 61.0721 20.8859 61.1564C20.7594 60.8305 21.1396 60.683 21.1307 60.499L20.9224 60.7673C20.8259 60.6797 20.7416 60.4625 20.8292 60.366C20.47 60.5678 20.7408 61.5876 20.4538 62.1364C20.5502 62.2239 20.6889 62.4201 20.8307 62.3026L20.7675 62.1396C21.0723 61.9589 21.1533 62.4898 21.3073 62.2426C21.5213 62.472 21.8107 62.7347 21.6778 63.0362L21.2765 63.1294C21.4062 63.1416 21.5059 62.9154 21.3552 62.8489C21.527 62.9697 20.8631 63.3523 21.3486 63.4764L21.6324 63.2413C21.8464 63.4707 22.2987 63.6701 22.1657 63.9717C22.5459 63.8242 22.1447 63.9174 22.5581 63.6945C22.015 63.9052 22.5435 63.0127 21.9672 63.2989C22.5103 63.0881 22.2087 62.9552 22.6011 62.6779C22.4714 62.6658 22.3295 62.7833 22.4292 62.5572C22.3749 62.5782 22.3539 62.5239 22.2995 62.545C22.2663 62.6204 22.1577 62.6625 22.1034 62.6836C21.8018 62.5507 21.784 62.1826 21.6665 62.0408C21.7329 61.89 21.8172 62.1072 21.9802 62.044L21.7329 61.89C22.0466 61.8932 22.2128 61.5163 22.4147 61.8754L22.4179 61.5617C22.593 61.3688 22.6384 61.1637 22.5209 61.0219C22.5874 60.8711 22.2437 60.6295 22.4366 60.8046L22.3223 60.349L22.3766 60.328C22.4463 59.8635 21.943 59.3714 22.5858 58.9345C22.5226 58.7716 22.4594 58.6087 22.6134 58.3614L22.8517 58.3314C22.7674 58.1142 23.2141 57.8159 22.9668 57.6619C23.6818 57.5719 23.3114 56.7783 23.4986 56.4557L23.1639 56.3981C23.2636 56.172 23.2336 55.9337 23.1825 55.641L22.9021 55.5624C22.7213 55.2576 23.2976 54.9715 23.3341 54.5824C23.4306 54.6699 23.3974 54.7453 23.2887 54.7875C24.0702 54.5467 23.1599 53.6502 23.7573 53.4184C23.6941 53.2554 23.7484 53.2343 23.857 53.1922C23.857 53.1922 23.857 53.1922 23.8781 53.2465C23.8781 53.2465 23.8781 53.2465 23.9113 53.1711C23.9657 53.1501 24.02 53.129 24.1286 53.0868C24.0743 53.1079 23.9657 53.1501 23.9657 53.1501C23.9989 53.0747 24.0111 52.945 23.9478 52.782L24.2826 52.8396C24.4456 52.7764 24.1651 52.6977 23.96 52.6523C23.9389 52.598 23.8968 52.4894 23.8757 52.4351C24.4156 52.5381 23.8579 52.0671 24.3767 52.1157C24.1838 51.9406 29.3313 42.5413 28.8368 42.2333C28.9122 42.2665 28.9665 42.2454 28.9333 42.3208C29.0209 42.2243 29.1627 42.1068 29.0995 41.9439L29.5097 42.0347L29.136 41.5548C29.4286 41.5037 29.6126 41.4948 29.7934 41.7996C29.5616 41.2022 29.7545 41.3773 29.5437 40.8342L29.7699 40.9339C29.8364 40.7831 29.5802 40.4451 29.8396 40.4694C30.446 40.4216 30.5676 39.1246 31.3944 38.6788C30.6827 38.4551 31.8832 38.4891 31.3888 38.1811C31.5939 38.2265 31.7025 38.1843 31.7657 38.3473C31.8354 37.8828 32.2999 37.9525 32.0559 37.4848C32.261 37.5302 32.2489 37.6599 32.3242 37.6931C32.3032 37.6388 32.261 37.5302 32.3697 37.488C32.4994 37.5002 32.4872 37.6299 32.5083 37.6842C32.6744 37.3073 32.2343 36.9782 31.8152 36.7034C32.1078 36.6523 32.1411 36.5769 31.9393 36.2178C32.1443 36.2632 32.3283 36.2543 32.2286 36.4805C32.3162 36.384 32.8626 35.8595 32.5189 35.618C32.6486 35.6301 32.6397 35.4461 32.6186 35.3918C32.8269 35.1235 32.8269 35.1235 32.9599 34.822L32.8512 34.8641C32.5197 34.4928 32.9299 34.5836 33.0296 34.3575L33.0507 34.4118C33.7024 34.1589 33.0539 34.0981 33.7267 33.8995L33.4795 33.7455C32.9972 33.3077 34.098 33.568 34.1134 33.1246L33.9083 33.0792C33.8573 32.7865 38.557 28.8582 38.7742 28.7739C38.8496 28.8071 38.8164 28.8825 38.7831 28.9579C39.3684 28.8557 38.4727 28.6409 38.6599 28.3183C38.8861 28.418 39.0125 28.7439 39.2087 28.6053C39.4138 28.6507 39.1431 27.6309 39.6619 27.6796C39.5111 27.6131 39.306 27.5677 39.3514 27.3626C39.4511 27.1364 40.2715 27.3181 40.0607 26.7749C40.1361 26.8082 40.1361 26.8082 40.2115 26.8414C40.2569 26.6363 40.4774 26.2383 40.372 25.9668C41.2523 26.625 40.8828 24.7063 41.5669 25.5031L41.9714 25.0962L42.0136 25.2048C42.3727 25.003 42.2673 24.7315 42.2373 24.4931C42.367 24.5053 42.3548 24.635 42.3548 24.635C42.919 24.4786 53.667 16.6639 53.7278 16.0155L53.9418 16.2449C53.9118 16.0065 54.9162 16.1792 55.1278 15.5972C55.1489 15.6515 55.1699 15.7058 55.191 15.7602C55.4901 15.0817 56.8682 15.7343 56.501 14.627L56.7004 14.1746C56.2116 14.3643 56.5108 13.6858 56.2303 13.6072C56.3511 13.4354 56.8788 13.668 56.6826 13.8066L56.6072 13.7734C56.839 14.3708 57.3011 13.6291 57.4486 14.0093C58.363 13.467 59.4249 13.305 60.2939 12.9678L60.0167 12.5754L60.3426 12.449C60.4933 12.5155 60.5776 12.7327 60.3604 12.817C60.5744 13.0464 60.6563 12.4522 60.6141 12.3436C61.1118 12.3379 71.7117 9.42294 71.8747 9.35972L72.0165 9.24219L71.9412 9.20895C72.0409 8.98279 71.9566 8.76555 72.2281 8.66018C72.4121 8.65127 72.4421 8.88959 72.4964 8.86851C72.5175 8.92282 72.5175 8.92283 72.6051 8.82637L73.0063 8.73316L72.6959 8.41619C72.7956 8.19004 62.0473 11.85 61.7158 11.4787C62.2402 12.0251 74.3374 7.65428 74.5846 7.8083C74.7719 7.48569 74.9891 7.40139 75.3361 7.32926C75.2607 7.29602 75.0921 6.86152 75.3515 6.88585C75.5047 7.76375 75.9335 7.09743 76.3282 7.63164C76.0178 7.31468 77.0886 7.33661 76.6396 6.82347C76.8989 6.8478 76.766 7.14934 76.9378 7.27013C77.3756 6.78783 78.2048 7.15345 78.8566 6.90056C78.8144 6.79193 78.6969 6.65007 78.7966 6.42391L79.3 6.91598C79.4418 6.79844 79.2311 6.25532 79.5959 6.55121C79.5537 6.44258 79.4573 6.35503 79.5448 6.25857C80.2687 6.35263 80.9537 6.02435 81.6054 5.77146C82.3114 5.4975 82.9843 5.29892 83.8257 5.53484C83.5784 5.38081 83.6871 5.33867 83.85 5.27545C83.7203 5.26328 83.7446 5.00389 83.6814 4.84095L84.372 5.01039C84.3331 4.58806 84.9484 4.72426 84.8552 4.323L84.7133 4.44054C84.762 3.92175 83.9871 3.53507 83.7763 2.99195C83.6944 3.58612 82.8295 2.48447 82.6901 3.41343C82.5393 3.34696 82.7355 3.20834 82.6179 3.06648C82.5936 3.32588 82.5061 3.42234 82.1924 3.41909L82.2256 3.3437C81.5739 3.59659 81.218 3.48471 80.4276 3.54143L80.5873 3.79191C80.4033 3.80082 80.3612 3.6922 80.2315 3.68004C80.1828 4.19883 80.687 3.56576 80.6595 4.13886C80.2647 3.60465 79.4768 4.47279 79.1485 3.78781C78.9102 3.8178 79.3293 4.09261 79.0577 4.19798L78.9402 4.05612L78.9158 4.31551C78.7318 4.32442 78.5932 4.12825 78.53 3.96531C78.5843 3.94424 78.6175 3.86886 78.6719 3.84779C78.4246 3.69376 78.0744 4.0796 77.999 4.04636L78.2795 4.125C77.6156 4.50759 76.6745 4.49783 76.0738 5.04335L76.1913 5.18521C75.7325 5.6132 64.677 8.64248 64.1218 8.98292L64.1007 8.92861C64.0342 9.07939 63.8923 9.19691 63.7294 9.26014C63.8291 9.03398 63.3857 9.01857 63.4854 8.79241C62.9723 9.24147 63.2771 9.06072 63.0323 9.71811L62.8937 9.52194C62.815 9.80241 62.8361 9.85672 62.5856 10.0164C62.7939 9.7481 62.2962 9.75376 62.4624 9.37683C61.6753 9.11984 61.7288 10.2239 61.1622 9.5689C61.1224 10.2717 61.7985 9.75941 61.732 9.91019C61.9249 10.0853 61.6834 10.429 61.4451 10.459C61.2821 10.5222 60.8031 9.77073 60.3143 9.96039C60.3686 9.93932 60.3475 9.88501 60.4018 9.86394C60.1757 9.76422 60.1059 10.2287 59.8044 10.0958C59.8433 10.5181 59.5328 10.2011 59.6682 10.711L60.0605 10.4338C59.8522 10.7021 59.9 11.3084 59.3601 11.2055C59.318 11.0968 59.4388 10.925 59.4509 10.7953C59.2791 10.6745 59.2758 10.9882 59.0497 10.8885C58.86 10.3997 59.5507 10.5691 59.6747 10.0836C59.4275 9.92956 59.3334 10.6534 59.2313 10.0682C59.3212 10.7831 58.7214 10.2035 58.6063 10.8731L58.5009 10.6015C58.4677 10.6769 58.4223 10.882 58.368 10.9031L58.3834 10.4597C58.2926 10.8698 57.756 10.4532 57.6019 10.7004C58.124 10.4353 57.8913 10.963 58.1929 11.096C57.764 11.7623 57.4844 10.5585 56.8626 11.0497C56.9502 10.9533 57.306 11.0652 57.2396 11.2159C57.0556 11.2248 56.8505 11.1794 56.6997 11.113C56.253 11.4113 56.9137 11.3424 56.8351 11.6228C56.4914 11.3813 56.681 11.8701 56.527 12.1173L56.3673 11.8668C55.7277 11.99 56.5659 12.5396 55.9596 12.5874L55.9539 12.0897L55.7999 12.337L55.6734 12.0111C55.5073 12.388 55.4319 12.3548 55.106 12.4812C55.2989 12.6563 55.371 13.0033 55.1749 13.1419C54.8944 13.0632 55.1238 12.8492 54.819 13.03C54.789 12.7917 54.759 12.5534 55.0063 12.7074C54.9641 12.5988 54.9763 12.4691 54.9552 12.4148C54.6748 12.3361 54.4875 12.6587 54.3789 12.7009C54.4332 12.6798 54.4875 12.6587 54.5629 12.692C54.5629 12.692 54.4964 12.8427 54.4299 12.9935C54.3635 13.1443 54.3181 13.3494 54.3181 13.3494C54.1673 13.2829 54.1794 13.1532 54.2127 13.0778C54.1251 13.1743 54.134 13.3583 54.0465 13.4547C53.9622 13.2375 53.8025 12.987 53.9022 12.7608L53.6153 13.3096C53.5188 13.2221 53.2051 13.2188 53.2172 13.0891C52.8703 13.1613 52.9059 13.8973 52.4836 13.9362C52.5047 13.9905 52.4714 14.0659 52.4382 14.1413C52.1123 14.2677 40.9331 21.9372 40.7758 22.4982L40.3235 22.2987C40.1152 22.567 40.9266 22.5646 40.5975 23.0048C40.3559 23.3485 40.2538 22.7632 40.0698 22.7721C40.0665 23.0858 40.0933 23.6379 39.5745 23.5892C39.5866 23.4595 39.7163 23.4717 39.7828 23.3209L39.3937 23.2844C39.367 22.7324 39.6596 22.6813 39.2495 22.5905C39.5056 22.9285 39.3305 23.1215 39.1554 23.3144C38.9803 23.5073 38.8052 23.7002 39.0824 24.0926L38.823 24.0683C38.8773 24.0472 38.8563 23.9929 38.9106 23.9718C38.3918 23.9231 39.1635 24.6235 38.75 24.8464C38.5871 24.9097 38.4031 24.9186 38.3942 24.7346L38.3034 25.1447C38.1948 25.1869 38.1526 25.0783 38.1859 25.0029L37.8567 25.443C37.9199 25.606 37.9499 25.8443 37.9588 26.0283C37.7748 26.0372 37.9167 25.9197 37.8413 25.8864L37.8048 26.2755C37.5243 26.1969 37.5276 25.8832 37.7238 25.7446C36.8945 25.379 37.7205 26.0583 36.9512 26.1693L37.0842 25.8678C36.5776 25.6894 36.5532 25.9488 36.1309 25.9877C36.336 26.0331 37.1474 26.0307 37.1109 26.4198C37.0023 26.4619 36.8937 26.5041 36.9237 26.7424C36.6554 26.5341 36.61 26.7392 36.4892 26.911L36.1998 26.6483C36.1211 26.9288 32.6487 31.4433 32.733 31.6606C32.5579 31.8535 32.2353 31.6662 32.0091 31.5665C31.6922 31.877 32.6033 31.6484 32.3496 32.1218C32.0448 32.3026 31.9872 32.6373 31.9718 33.0807C31.7002 33.1861 31.7789 32.9056 31.6492 32.8935L31.7967 33.2737C31.7424 33.2947 31.667 33.2615 31.6459 33.2072C31.6759 33.4455 31.9896 33.4487 31.911 33.7292C32.2214 34.0462 31.012 33.8281 31.2981 34.4044C31.1684 34.3923 31.1052 34.2293 30.9544 34.1629C31.0022 34.7692 30.9601 34.6606 31.1165 35.2248L30.7363 35.3723C31.1587 35.3334 31.2729 35.789 31.4205 36.1692C31.6045 36.1602 31.7342 36.1724 31.8096 36.2056L31.7941 36.649C31.7398 36.6701 31.6223 36.5283 31.5048 36.3864C31.5258 36.4407 31.5469 36.495 31.5469 36.495C31.3086 36.525 31.17 36.3288 31.0314 36.1327C31.1611 36.1448 31.2154 36.1237 31.3451 36.1359C31.1854 35.8854 30.9925 35.7103 30.7663 35.6106C30.7874 35.6649 30.8085 35.7192 30.7752 35.7946C30.7542 35.7403 30.6788 35.7071 30.6577 35.6528C30.6034 35.6738 30.6788 35.7071 30.7209 35.8157L30.2897 35.6706L30.4615 35.7914L29.9062 36.1318C30.1381 36.7292 30.5539 37.3178 30.3844 38.0084C30.1494 37.7247 29.89 37.7003 29.5674 37.5131C30.0318 37.5828 29.6703 36.9732 29.8997 36.7592C29.7579 36.8768 29.6403 36.7349 29.6193 36.6806L29.6338 37.3623C29.3655 37.154 29.3744 37.338 29.1572 37.4223C29.7935 37.6128 29.3136 37.9865 29.3858 38.3334C29.1596 38.2337 29.0421 38.0918 29.1961 37.8446C28.5897 37.8924 29.6751 38.5961 29.1442 38.6771C29.1774 38.6017 29.2317 38.5807 29.1353 38.4931C29.2196 38.7104 28.9026 39.0208 28.764 38.8246L28.7972 38.7492C28.5014 39.114 28.1025 40.0186 28.597 40.3267C28.5216 40.2934 28.0271 39.9854 27.9306 39.8979C27.9306 39.8979 28.2622 40.2691 28.6148 40.6947C28.9463 41.066 29.2778 41.4373 29.2778 41.4373C28.8588 41.1624 27.7247 40.9776 27.6647 40.5009C27.5772 40.5974 27.4143 40.6606 27.4653 40.9533C27.5739 40.9111 28.1892 41.0473 28.177 41.177C27.5707 41.2248 22.9363 50.1751 22.3721 50.3315C22.535 50.2683 23.126 50.6639 23.0595 50.8146C22.963 50.7271 22.381 50.5155 22.3599 50.4612L22.8722 51.1373C22.809 50.9743 22.3234 50.8503 22.0851 50.8803C22.2148 50.8924 21.9189 51.2572 21.9611 51.3658L22.1783 51.2815C21.8492 51.7217 22.9378 52.1116 22.7384 52.5639C22.6209 52.4221 21.9213 52.0686 21.7673 52.3159C22.0567 52.5785 23.2596 53.424 23.4493 53.9128L23.211 53.9428L23.3585 54.323C22.8972 53.9395 21.9659 52.9887 21.6133 52.5631C21.4171 52.7017 21.3539 52.5388 21.2752 52.8192C21.0369 52.8492 21.0402 52.5355 21.0734 52.4601L20.7532 53.0843C21.1634 53.1751 21.0061 53.736 21.3409 53.7936L21.1334 52.9368C21.5646 53.0819 22.1855 53.7158 21.9861 54.1681C21.7689 54.2524 21.2323 53.8357 21.1026 53.8236C21.199 53.9111 21.2379 54.3335 21.1293 54.3756L20.9696 54.1251C20.7402 54.3391 21.3854 54.7136 20.8966 54.9033C20.8091 54.9998 20.2781 55.0808 20.5043 55.1805C21.0352 55.0995 22.5673 55.5048 22.8899 55.6921C22.8356 55.7132 22.3014 56.1079 22.0087 56.159C21.6075 56.2522 21.1373 55.6847 20.7904 55.7569C20.9201 55.769 21.0376 55.9109 21.0587 55.9652C20.9168 56.0827 20.7028 55.8533 20.7328 56.0917C21.1641 56.2368 20.6088 56.5772 21.0555 56.2789C21.1065 56.5716 20.9014 56.5261 20.8771 56.7855C21.1697 56.7345 21.8028 57.2387 21.8328 57.477C21.7031 57.4649 21.5734 57.4527 21.5191 57.4738C21.395 57.9593 21.1656 58.1733 21.0959 58.6378C20.9873 58.6799 20.8122 58.8729 20.6403 58.7521C20.7368 58.8396 20.8333 58.9272 20.8211 59.0569C19.9975 59.189 20.4142 58.6524 19.9043 58.7877ZM22.2493 61.1272C22.3701 60.9554 22.3369 61.0308 22.2493 61.1272V61.1272ZM72.4875 8.6845L72.4121 8.65127C72.4786 8.5005 72.5208 8.60912 72.4875 8.6845ZM36.918 26.2447C36.9302 26.115 36.9002 25.8767 37.051 25.9431C37.3071 26.2812 37.102 26.2358 36.918 26.2447ZM30.5247 35.9543C30.4915 36.0297 30.4583 36.1051 30.3496 36.1472C30.2532 36.0597 30.3407 35.9632 30.5247 35.9543Z" fill="#CBECFF"/>
<path d="M25.4042 73.4874C25.5306 73.8133 25.5817 74.1059 25.6449 74.2689C25.6027 74.1602 25.5517 73.8676 25.6149 74.0305C25.6992 74.2478 25.687 74.3775 25.7713 74.5947C25.8078 74.2056 25.3863 73.1194 25.0402 72.0664C25.221 72.3712 25.1999 72.3169 25.0856 71.8613L25.14 71.8402C25.2032 72.0032 25.2875 72.2204 25.2964 72.4044C25.3507 72.3834 25.5679 72.2991 25.2186 71.5598C25.2818 71.7227 25.2729 71.5387 25.2308 71.4301L25.4358 71.4755L25.2308 71.4301L25.2097 71.3758C25.1886 71.3215 25.2429 71.3004 25.2429 71.3004C25.2429 71.3004 25.2972 71.2793 25.3183 71.3336C25.3183 71.3336 25.264 71.3547 25.2429 71.3004L25.2762 71.225C25.3305 71.2039 25.4059 71.2372 25.4812 71.2704L25.2762 71.225L25.2218 71.2461C25.2218 71.2461 25.2008 71.1918 25.234 71.1164L25.1586 71.0831C25.1376 71.0288 25.0954 70.9202 25.0743 70.8659C25.1286 70.8448 25.1497 70.8991 25.1497 70.8991C25.1076 70.7905 25.3005 70.9656 25.4634 70.9024C25.5388 70.9356 25.5388 70.9356 25.5388 70.9356C25.5931 70.9145 25.5931 70.9145 25.6474 70.8935C25.5931 70.9145 25.5931 70.9145 25.5931 70.9145C25.5388 70.9356 25.5177 70.8813 25.4634 70.9024C25.5177 70.8813 25.5388 70.9356 25.5931 70.9145L25.6474 70.8935L25.6385 70.7095C25.5842 70.7305 25.5842 70.7305 25.6053 70.7848C25.4002 70.7394 25.2705 70.7273 25.1197 70.6608C25.0987 70.6065 25.0776 70.5522 25.0565 70.4979C25.2405 70.489 25.4456 70.5344 25.6296 70.5254C25.5542 70.4922 25.4245 70.48 25.3491 70.4468C25.3824 70.3714 25.2227 70.1209 25.4699 70.275L25.4489 70.2207C25.5996 70.2871 25.675 70.3204 25.6207 70.3414C26.0098 70.3779 25.5453 70.3082 26.0641 70.3569C25.491 70.3293 26.1306 70.2061 25.5032 70.1996C25.9466 70.215 25.8169 70.2028 26.0552 70.1728C26.1306 70.2061 26.1517 70.2604 26.206 70.2393C26.2814 70.2726 26.2692 70.4023 26.3113 70.5109C26.5164 70.5563 26.3989 70.4144 26.2392 70.1639C26.2181 70.1096 26.1427 70.0764 26.1217 70.0221C26.2514 70.0342 26.176 70.001 26.1006 69.9678C26.0795 69.9135 26.0795 69.9134 26.0584 69.8591L26.1128 69.8381C26.2514 70.0342 26.411 70.2847 26.4986 70.1883C26.574 70.2215 26.4475 69.8956 26.3422 69.6241C26.3 69.5154 26.2579 69.4068 26.2368 69.3525C26.3665 69.3647 26.4208 69.3436 26.2157 69.2982C26.1947 69.2439 26.2279 69.1685 26.3243 69.2561L26.3033 69.2017L26.3576 69.1807C26.2822 69.1474 26.6291 69.0753 26.3697 69.051C27.0393 69.1661 26.5448 68.8581 26.7078 68.7948L26.373 68.7373C26.4062 68.6619 26.3309 68.6286 26.2555 68.5954C26.2344 68.5411 26.1922 68.4325 26.0958 68.3449C26.1712 68.3782 26.1712 68.3782 26.2466 68.4114L26.2255 68.3571C26.7232 68.3514 25.7853 68.028 26.283 68.0223C26.2077 67.9891 26.2077 67.9891 26.3163 67.9469C26.3706 67.9258 26.446 67.9591 26.5003 67.938C26.4249 67.9048 26.3706 67.9258 26.3163 67.9469C26.3163 67.9469 26.2952 67.8926 26.2198 67.8594L26.5546 67.9169C26.6843 67.9291 26.4038 67.8505 26.1987 67.8051C26.1234 67.7718 26.1023 67.7175 26.048 67.7386C26.1988 67.8051 26.2531 67.784 26.232 67.7297C26.2863 67.7086 26.2863 67.7086 26.2863 67.7086C26.2863 67.7086 26.3617 67.7418 26.416 67.7208C26.3406 67.6875 26.3406 67.6875 26.2652 67.6543C26.2441 67.6 26.202 67.4913 26.1599 67.3827C26.1388 67.3284 26.1177 67.2741 26.1177 67.2741C26.1931 67.3073 26.2685 67.3406 26.3439 67.3738C26.1931 67.3073 26.1177 67.2741 26.0966 67.2198C26.0545 67.1112 26.0877 67.0358 26.4103 67.223L26.3925 66.855L26.4679 66.8883C26.5011 66.8129 26.459 66.7042 26.4379 66.6499L26.4922 66.6289C26.4379 66.6499 26.4168 66.5956 26.4168 66.5956C26.4168 66.5956 26.3958 66.5413 26.3415 66.5624C26.4712 66.5746 26.5255 66.5535 26.245 66.4748C26.4501 66.5202 26.5044 66.4992 26.6552 66.5656C26.4833 66.4449 26.9478 66.5146 26.4955 66.3152C26.7006 66.3606 26.7216 66.4149 26.8513 66.427C26.8303 66.3727 26.7006 66.3606 26.8303 66.3727C26.96 66.3849 26.981 66.4392 27.0564 66.4724C27.0353 66.4181 26.8092 66.3184 26.4533 66.2065C26.4866 66.1311 26.4655 66.0768 26.3901 66.0436C26.4444 66.0225 26.532 65.9261 26.2515 65.8474C26.3269 65.8807 26.3058 65.8264 26.3058 65.8264L26.4355 65.8385C26.2847 65.772 27.0119 65.5524 26.6471 65.2565C26.7014 65.2354 26.7225 65.2897 26.7979 65.323C26.7768 65.2687 26.7557 65.2143 26.7557 65.2143C26.9608 65.2597 27.1448 65.2508 27.1448 65.2508C27.1991 65.2298 27.2202 65.2841 27.2956 65.3173C27.739 65.3327 26.8854 65.2265 26.8433 65.1179C27.0484 65.1633 27.4042 65.2752 27.4585 65.2541C27.6425 65.2452 26.8133 64.8796 27.2235 64.9704C27.1692 64.9914 27.1481 64.9371 27.0938 64.9582C27.127 64.8828 27.127 64.8828 27.0305 64.7953C27.0848 64.7742 27.0849 64.7742 26.913 64.6534C26.9673 64.6323 26.9884 64.6866 27.0427 64.6656C26.9462 64.578 26.8498 64.4905 26.6026 64.3364C27.649 64.6178 26.1956 63.9319 27.1124 64.2011L27.1246 64.0714L27.2 64.1046C27.2875 64.0082 27.0824 63.9628 26.8563 63.8631C26.9106 63.842 27.0071 63.9295 27.0614 63.9085C27.2786 63.8242 27.2243 63.8452 26.956 63.6369C26.956 63.6369 26.956 63.6369 27.0103 63.6158L27.1611 63.6823C27.0103 63.6158 27.7131 63.6556 27.3694 63.414C27.3694 63.414 27.4448 63.4472 27.5202 63.4805C27.1765 63.2389 28.4946 63.4149 27.3516 63.046L27.1044 62.892C27.0501 62.913 26.9957 62.9341 26.9204 62.9009C27.0501 62.913 27.3094 62.9374 27.2762 63.0127C27.4602 63.0038 27.3095 62.9374 27.1376 62.8166C27.1919 62.7955 27.1708 62.7412 27.3005 62.7533C27.4513 62.8198 27.5478 62.9074 27.5478 62.9074L27.5056 62.7988L27.4513 62.8198C27.4513 62.8198 27.4513 62.8198 27.4302 62.7655C27.4546 62.5061 27.8558 62.4129 27.9555 62.1868L27.47 62.0627L27.5032 61.9873C27.6329 61.9995 27.8591 62.0992 27.8048 62.1203C28.0642 62.1446 27.6118 61.9452 27.5365 61.9119C27.7748 61.882 28.0431 62.0903 28.0974 62.0692L28.0763 62.0149L28.022 62.036C27.8502 61.9152 27.6451 61.8698 27.6994 61.8487C27.808 61.8066 27.9799 61.9274 28.0342 61.9063C28.0885 61.8852 28.0342 61.9063 28.0342 61.9063L28.1217 61.8098L27.7326 61.7733C27.5819 61.7069 27.7659 61.6979 27.3557 61.6071C27.9499 61.689 27.6727 61.2967 27.8777 61.3421C27.6305 61.1881 27.6638 61.1127 27.7181 61.0916C27.6638 61.1127 27.5884 61.0794 27.513 61.0462L27.5673 61.0251C28.0528 61.1492 27.7845 60.9408 28.3244 61.0438C27.9142 60.953 28.2401 60.8265 27.7756 60.7568C27.9053 60.769 28.0561 60.8355 28.2612 60.8809C27.9929 60.6725 28.5449 60.6458 28.4817 60.4829C28.4063 60.4496 28.2012 60.4042 28.0504 60.3377L28.5903 60.4407C28.5692 60.3864 27.954 60.2502 28.3431 60.2867C28.2888 60.3078 28.2134 60.2745 28.1923 60.2202C28.2466 60.1991 28.2798 60.1238 28.3131 60.0484C28.3463 59.973 28.3253 59.9187 28.3585 59.8433L28.4882 59.8554C28.4882 59.8554 28.4128 59.8222 28.3163 59.7347C28.3074 59.5507 28.2985 59.3666 28.9259 59.3731C28.7209 59.3277 28.7209 59.3278 28.6998 59.2734C28.6455 59.2945 28.4947 59.228 28.3439 59.1616L28.7119 59.1437C28.3561 59.0319 28.6487 58.9808 28.4226 58.8811C28.4558 58.8057 28.4558 58.8057 28.489 58.7303C28.5677 58.4499 28.7217 58.2026 29.2948 58.2302C29.0897 58.1848 29.0686 58.1305 29.1019 58.0551C29.0476 58.0762 28.8546 57.9011 28.7039 57.8346L29.2016 57.8289C28.8579 57.5874 29.3013 57.6028 28.9576 57.3612L28.9998 57.4698C28.6139 57.1196 28.0197 57.0377 27.4499 56.6965C27.8568 57.101 26.5963 56.5902 27.1962 57.1698C27.0665 57.1577 27.0243 57.0491 26.8735 56.9826C27.0665 57.1577 27.1086 57.2663 26.9246 57.2752L26.8492 57.242C26.7163 57.5435 26.4779 57.5735 26.1399 57.8296L26.4415 57.9626C26.3328 58.0048 26.2574 57.9715 26.2031 57.9926C26.5679 58.2885 26.3239 57.8207 26.743 58.0955C26.1067 57.905 26.4893 58.5689 25.8529 58.3784C25.7865 58.5292 26.2088 58.4903 26.1212 58.5868L25.9162 58.5414L26.1423 58.6411C26.1091 58.7165 25.8286 58.6378 25.6778 58.5713C25.6778 58.5713 25.6568 58.517 25.6357 58.4627C25.3974 58.4927 25.5781 58.7975 25.5027 58.7643L25.6657 58.701C25.6957 58.9394 25.5749 59.1112 25.4752 59.3374C25.463 59.4671 25.4508 59.5968 25.5351 59.814L25.6648 59.8262C25.6859 59.8805 25.707 59.9348 25.728 59.9891C25.6948 60.0645 25.4897 60.0191 25.5197 60.2574L25.4986 60.2031C25.574 60.2363 25.5951 60.2906 25.6162 60.345C25.5619 60.366 25.5408 60.3117 25.4865 60.3328C25.5619 60.366 25.5829 60.4203 25.5829 60.4203L25.604 60.4747C25.4322 60.3539 25.236 60.4925 25.1185 60.3506C25.2781 60.6011 25.2781 60.6011 25.5254 60.7551C25.5464 60.8094 25.6218 60.8427 25.6429 60.897L25.5132 60.8848L25.5886 60.9181C25.5343 60.9391 25.4589 60.9059 25.3835 60.8727C25.5343 60.9391 25.6097 60.9724 25.6851 61.0056C25.7604 61.0389 25.7815 61.0932 25.8026 61.1475C25.6729 61.1353 25.5975 61.1021 25.5432 61.1232C25.4678 61.0899 25.3381 61.0777 25.2416 60.9902C24.949 61.0413 25.0665 61.1831 25.1087 61.2917L25.0333 61.2585L25.1087 61.2917C25.1508 61.4004 25.2262 61.4336 24.9125 61.4303C24.9125 61.4303 24.8582 61.4514 24.8371 61.3971C24.9125 61.4304 24.9125 61.4304 24.9879 61.4636C25.009 61.5179 24.6199 61.4814 24.7707 61.5479C24.7828 61.4182 25.1265 61.6598 25.3648 61.6298C25.3859 61.6841 25.4402 61.663 25.4402 61.663C25.3648 61.6298 25.2562 61.6719 25.1808 61.6387C24.9214 61.6144 24.641 61.5357 24.6831 61.6443C24.662 61.59 24.8671 61.6354 24.9968 61.6476L24.9425 61.6687C24.8882 61.6897 24.7585 61.6776 24.6288 61.6654C24.6499 61.7197 24.7253 61.753 24.7796 61.7319C24.8006 61.7862 24.8971 61.8738 24.7342 61.937C24.8849 62.0034 24.906 62.0578 24.906 62.0578L24.7552 61.9913C24.9814 62.091 24.9271 62.1121 24.8185 62.1542C24.7974 62.0999 24.7763 62.0456 24.6799 61.958C24.4415 61.988 24.9903 62.275 24.4837 62.0967C24.5591 62.1299 24.6345 62.1631 24.7098 62.1964C24.5258 62.2053 24.6766 62.2718 24.6434 62.3471L24.6977 62.3261L24.7188 62.3804C24.6644 62.4015 24.6312 62.4768 24.7277 62.5644C24.5769 62.4979 24.4472 62.4857 24.3507 62.3982L24.5437 62.5733L24.4893 62.5944C24.4893 62.5944 24.4893 62.5944 24.5104 62.6487C24.435 62.6154 24.3807 62.6365 24.251 62.6244C24.1967 62.6454 24.1756 62.5911 24.1213 62.6122C24.067 62.6333 24.1635 62.7208 24.2599 62.8084C24.2056 62.8294 24.1513 62.8505 24.097 62.8716L24.0216 62.8383C24.0216 62.8383 24.0427 62.8927 24.097 62.8716C24.0427 62.8927 23.9884 62.9137 24.0638 62.947C24.097 62.8716 24.097 62.8716 24.1513 62.8505C24.2267 62.8838 24.281 62.8627 24.3021 62.917L24.1513 62.8505C24.2056 62.8294 24.281 62.8627 24.3564 62.8959C24.3564 62.8959 24.3564 62.8959 24.3021 62.917C24.3775 62.9502 24.3775 62.9502 24.3985 63.0045C24.3442 63.0256 24.1602 63.0345 24.2024 63.1432C24.0727 63.131 24.0184 63.1521 23.964 63.1731L23.8887 63.1399C23.8887 63.1399 23.9097 63.1942 23.964 63.1731C23.9097 63.1942 23.9308 63.2485 23.8976 63.3239C23.8765 63.2696 23.9851 63.2275 24.1148 63.2396C24.1148 63.2396 24.1691 63.2185 24.1902 63.2728L24.2656 63.3061C24.2113 63.3272 24.2113 63.3272 24.157 63.3482C24.1027 63.3693 23.994 63.4115 23.9186 63.3782C23.7679 63.3117 23.8222 63.2907 23.5417 63.212C23.8222 63.2907 23.8976 63.3239 23.9186 63.3782C23.9186 63.3782 23.9186 63.3782 23.9397 63.4325C23.9608 63.4868 23.8732 63.5833 24.3045 63.7284L24.2291 63.6952L24.208 63.6409C24.0029 63.5955 24.1537 63.6619 24.3045 63.7284C24.3256 63.7827 24.5306 63.8281 24.6603 63.8403L24.6814 63.8946C24.6271 63.9157 24.4974 63.9035 24.422 63.8703L24.3466 63.837L24.4642 63.9789L24.1083 63.867C24.2802 63.9878 24.3012 64.0421 24.2469 64.0632C24.1172 64.051 24.1926 64.0843 24.1926 64.0843C24.1926 64.0843 24.1383 64.1053 24.1594 64.1597C24.2137 64.1386 24.2891 64.1718 24.3645 64.2051C24.3645 64.2051 24.3312 64.2804 24.2015 64.2683L24.1051 64.1807C23.6195 64.0567 23.7914 64.1775 23.4776 64.1742C23.553 64.2075 23.8124 64.2318 24.0718 64.2561C23.9632 64.2983 23.93 64.3736 23.951 64.428L23.8757 64.3947C23.8757 64.3947 23.8967 64.449 23.951 64.428C23.9721 64.4823 23.9721 64.4823 23.9721 64.4823L24.0264 64.4612L24.1018 64.4944L24.2737 64.6152C24.144 64.6031 23.9389 64.5577 23.7338 64.5123C23.6462 64.6087 24.2526 64.5609 24.3158 64.7239C24.3158 64.7239 24.3158 64.7239 24.2615 64.7449C24.2072 64.766 24.1861 64.7117 24.1861 64.7117C24.1861 64.7117 24.2072 64.766 24.2826 64.7992C24.2826 64.7992 24.3036 64.8535 24.379 64.8868C24.1196 64.8625 23.8935 64.7627 23.797 64.6752L24.0321 64.9589C23.9778 64.98 23.8481 64.9678 23.7938 64.9889C23.7727 64.9346 23.7184 64.9557 23.643 64.9224C23.6641 64.9767 23.7184 64.9557 23.7394 65.01C23.6851 65.031 23.6098 64.9978 23.6098 64.9978C23.4468 65.061 23.8448 65.2815 23.908 65.4445C23.908 65.4445 23.908 65.4445 23.8748 65.5199C23.9502 65.5531 23.9502 65.5531 23.9713 65.6074C23.9169 65.6285 23.938 65.6828 23.8837 65.7039C23.8294 65.7249 23.8294 65.7249 23.7751 65.746C23.7208 65.7671 23.7208 65.7671 23.8926 65.8879C23.8926 65.8879 23.7629 65.8757 23.6875 65.8425C23.6121 65.8092 23.5578 65.8303 23.5578 65.8303C23.4825 65.7971 23.4614 65.7428 23.386 65.7095C23.4071 65.7638 23.4825 65.7971 23.5035 65.8514L23.5578 65.8303C23.7086 65.8968 24.0977 65.9333 24.2152 66.0751C24.2363 66.1294 24.2363 66.1294 24.2363 66.1294L23.9348 65.9965L24.0855 66.063C23.9558 66.0508 23.8594 65.9633 23.784 65.93C24.0102 66.0297 24.4292 66.3045 24.0734 66.1927C23.9769 66.1051 24.0523 66.1384 24.0312 66.0841L23.8051 65.9843C23.4071 65.7638 23.5578 65.8303 23.1809 65.6641C23.6332 65.8635 23.6543 65.9179 23.6543 65.9179C23.6754 65.9722 23.6754 65.9722 23.8683 66.1473C23.7929 66.114 23.7929 66.114 23.814 66.1683L23.7597 66.1894L23.6632 66.1019L23.7597 66.1894L23.5967 66.2526C23.5967 66.2526 23.5967 66.2526 23.6178 66.307C23.3827 66.0232 23.4249 66.1319 23.1898 65.8481C23.232 65.9568 23.4249 66.1319 23.5635 66.328C23.681 66.4699 23.8196 66.6661 23.9161 66.7536L23.8407 66.7204C23.895 66.6993 23.9161 66.7536 23.9161 66.7536L23.8618 66.7747L23.5635 66.328C23.681 66.4699 23.7443 66.6328 23.8618 66.7747C23.7443 66.6328 23.6056 66.4366 23.467 66.2405C23.446 66.1862 23.6478 66.5453 23.8075 66.7958C23.8496 66.9044 23.925 66.9376 23.9461 66.9919C23.8496 66.9044 23.8707 66.9587 23.9339 67.1216L23.8796 67.1427C23.8585 67.0884 23.8375 67.0341 23.8164 66.9798L23.9007 67.197C23.9007 67.197 23.8464 67.2181 23.9218 67.2513L24.0271 67.5229C24.006 67.4686 23.9639 67.36 23.9428 67.3056C23.9639 67.36 23.985 67.4143 24.0271 67.5229L23.9728 67.544C23.9728 67.544 24.0271 67.5229 24.0482 67.5772C24.0693 67.6315 24.0693 67.6315 24.0903 67.6858C24.015 67.6526 23.9607 67.6737 23.9396 67.6193C23.9185 67.565 23.9185 67.565 23.8974 67.5107C23.9185 67.565 23.9185 67.565 23.9396 67.6193C23.7556 67.6283 23.6802 67.595 23.7013 67.6493C23.4962 67.6039 23.4208 67.5707 23.3997 67.5164L23.2579 67.6339C23.27 67.5042 23.27 67.5042 23.24 67.2659C23.2943 67.2448 23.3697 67.2781 23.4451 67.3113C23.3697 67.2781 23.2943 67.2448 23.219 67.2116C23.1979 67.1573 23.2311 67.0819 23.189 66.9733C23.1801 66.7893 23.1557 67.0486 23.219 67.2116L23.1436 67.1783C23.1136 66.94 23.1801 66.7893 23.1801 66.7893L23.1501 66.5509C23.1679 66.919 23.1557 67.0486 23.0893 67.1994C23.035 67.2205 23.0349 67.2205 22.9806 67.2416L23.0139 67.1662C23.026 67.0365 22.9596 67.1873 22.9474 67.3169C22.9142 67.3923 22.9142 67.3923 22.9142 67.3923C22.9142 67.3923 22.8931 67.338 22.9263 67.2626C22.9596 67.1873 22.9717 67.0576 22.9174 67.0786C22.9085 66.8946 22.9661 66.5598 22.9417 66.8192C22.9296 66.9489 22.8631 67.0997 22.8177 67.3048C22.7845 67.3802 22.6758 67.4223 22.6426 67.4977C22.6758 67.4223 22.688 67.2926 22.7212 67.2172C22.7091 67.3469 22.6426 67.4977 22.5883 67.5188C22.6215 67.4434 22.6337 67.3137 22.6669 67.2383C22.7212 67.2172 22.7002 67.1629 22.7545 67.1419C22.7756 67.1962 22.7212 67.2172 22.7423 67.2716C22.7756 67.1962 22.7756 67.1962 22.7545 67.1419C22.7877 67.0665 22.821 66.9911 22.7456 66.9578C22.7999 66.9368 22.7334 67.0875 22.7002 67.1629C22.7456 66.9578 23.0625 66.6474 23.0836 66.7017C22.8664 66.786 22.6491 66.8703 22.474 67.0632L22.5494 67.0965C22.5162 67.1718 22.4618 67.1929 22.4286 67.2683C22.5162 67.1718 22.4618 67.1929 22.3532 67.2351C22.2446 67.2772 22.157 67.3737 22.1027 67.3947L22.3321 67.1808C22.3565 66.9214 21.8733 67.6087 21.8977 67.3493L22.2357 67.0932L22.1271 67.1354L22.3897 66.846C22.1392 67.0057 22.1725 66.9303 22.1846 66.8006C22.1303 66.8216 22.0971 66.897 22.0971 66.897C22.0971 66.897 22.1514 66.876 22.1303 66.8216C22.0428 66.9181 21.9341 66.9602 21.8798 66.9813C21.9341 66.9602 21.9131 66.9059 21.8588 66.927C22.0006 66.8095 22.1757 66.6166 22.0217 66.8638C22.1092 66.7673 22.1636 66.7463 22.2511 66.6498C22.3508 66.4236 22.209 66.5412 22.1336 66.5079C22.1336 66.5079 22.1546 66.5622 22.1003 66.5833L21.6869 66.8062C21.6869 66.8062 21.6869 66.8062 21.7412 66.7852C21.8498 66.743 21.9585 66.7009 21.862 66.6133L21.9163 66.5922C21.862 66.6133 21.7745 66.7098 21.6991 66.6765C21.8742 66.4836 22.0493 66.2907 22.1579 66.2485L21.8863 66.3539C21.9739 66.2574 22.0193 66.0524 22.1279 66.0102C22.1944 65.8594 21.6602 66.2542 21.7056 66.0491C21.6513 66.0702 21.618 66.1456 21.597 66.0913C21.5548 65.9826 21.6878 65.6811 21.383 65.8619L21.6035 65.4639C21.4738 65.4517 21.2954 65.9583 21.0571 65.9883C20.8942 66.0515 21.2987 65.6446 21.3108 65.5149C21.1147 65.6535 20.7434 65.985 20.9096 65.6081C21.0182 65.566 20.985 65.6414 21.0393 65.6203L21.139 65.3941C21.477 65.138 21.4105 65.2887 21.5978 64.9661C21.0393 65.6203 21.2963 64.8332 20.7588 65.5416L20.8253 65.3909L20.8796 65.3698C21.0458 64.9929 20.4208 65.7978 20.4119 65.6138C20.4451 65.5384 20.4573 65.4087 20.5659 65.3665L20.3486 65.4508C20.3276 65.3965 20.4151 65.3001 20.4362 65.3544L20.2854 65.2879C20.1979 65.3844 20.0017 65.523 19.9474 65.544C20.0139 65.3933 20.0349 65.4476 20.0682 65.3722L19.872 65.5108C19.9717 65.2847 20.189 65.2003 20.21 65.2547C20.6721 64.513 20.0139 65.3933 20.1922 64.8866L20.3008 64.8445C20.5756 64.4254 20.4338 64.5429 20.4913 64.2082C20.4249 64.3589 20.159 64.962 19.9417 65.0463C19.975 64.9709 19.9539 64.9166 19.812 65.0342C20.0204 64.7659 19.9117 64.808 19.8363 64.7748L20.0779 64.4311C19.9693 64.4732 19.8485 64.6451 19.6523 64.7837C19.6313 64.7294 19.8185 64.4068 19.9393 64.2349C19.8972 64.1263 19.6856 64.7083 19.5559 64.6961C19.547 64.5121 19.4051 64.6297 19.1879 64.7139C19.2 64.5843 19.363 64.521 19.3751 64.3913L19.1457 64.6053C19.1457 64.6053 19.2333 64.5089 19.2122 64.4546C19.1036 64.4967 18.9706 64.7982 18.862 64.8404C18.5661 65.2052 19.1068 64.183 18.7566 64.5688C18.7899 64.4934 18.9317 64.3759 18.9982 64.2251C18.6934 64.4059 18.7477 64.3848 18.4097 64.641L18.4883 64.3605C18.3554 64.662 18.0716 64.8971 17.8422 65.1111C17.7758 65.2619 17.6882 65.3583 17.7093 65.4127L17.492 65.497C17.5253 65.4216 17.6128 65.3251 17.7547 65.2076C17.7004 65.2286 17.7004 65.2286 17.6671 65.304C17.7336 65.1533 17.8544 64.9814 18.0295 64.7885C17.9963 64.8639 17.963 64.9393 17.9298 65.0147C18.1049 64.8217 18.28 64.6288 18.434 64.3816C18.3797 64.4026 18.3465 64.478 18.3254 64.4237C18.3586 64.3483 18.4129 64.3273 18.4672 64.3062C18.5216 64.2851 18.4129 64.3273 18.3254 64.4237L18.5459 64.0257L18.4251 64.1976L18.4827 63.8628C18.1114 64.1943 17.6193 64.6977 17.381 64.7277C17.5893 64.4594 17.7101 64.2875 17.9517 63.9438C17.7312 64.3418 18.169 63.8595 18.2111 63.9682C18.19 63.9138 18.3108 63.742 18.3651 63.7209L18.006 63.9228C18.2144 63.6544 18.1057 63.6966 18.1722 63.5458C17.8309 64.1157 17.8342 63.802 17.638 63.9406C17.7588 63.7687 17.8796 63.5969 17.9217 63.7055C18.1211 63.2532 17.3964 64.2843 17.5415 63.853C17.5415 63.853 17.5626 63.9073 17.6502 63.8109C17.5083 63.9284 17.4994 63.7444 17.6413 63.6269C17.578 63.4639 17.2976 63.3853 16.9684 63.8255C17.0017 63.7501 17.3851 63.2888 17.4183 63.2134L16.2137 64.6182C16.5096 64.2534 17.0503 63.2313 17.3008 63.0716C17.334 62.9962 17.313 62.9419 17.15 63.0051C17.1168 63.0805 16.8298 63.6293 16.7755 63.6503C17.0293 63.177 16.8542 63.3699 17.0536 62.9176C17.0414 63.0473 16.5915 63.6593 16.5704 63.6049C16.658 63.5085 16.945 62.9597 16.9993 62.9386L16.5283 63.4963C16.6158 63.3999 16.8906 62.9808 16.936 62.7757C16.8696 62.9265 16.8396 62.6882 16.8064 62.7635L16.761 62.9686C16.6977 62.8057 16.0816 63.7946 15.9641 63.6528C16.0516 63.5563 16.4805 62.89 16.4926 62.7603C16.2843 63.0286 15.4388 64.2315 15.1883 64.3912L15.288 64.165L15.0919 64.3036C15.421 63.8635 16.1878 62.941 16.4837 62.5763C16.5291 62.3712 16.5834 62.3501 16.5081 62.3169C16.5535 62.1118 16.7164 62.0486 16.7375 62.1029L16.6532 61.8856C16.4327 62.2836 16.2819 62.2172 16.1489 62.5187L16.5413 62.2415C16.3208 62.6395 15.7955 63.2183 15.7533 63.1096C15.8198 62.9589 16.1822 62.4433 16.2487 62.2926C16.1611 62.389 15.9982 62.4522 16.0314 62.3768L16.2065 62.1839C16.1976 61.9999 15.8231 62.6452 15.9139 62.235C15.8928 62.1807 16.0922 61.7284 15.9714 61.9002C15.772 62.3525 14.9897 63.7184 14.8025 64.041C14.8025 64.041 14.9265 63.5554 15.0262 63.3293C15.1924 62.9524 15.5426 62.5665 15.6756 62.265C15.588 62.3614 15.5215 62.5122 15.4672 62.5333C15.4794 62.4036 15.6545 62.2107 15.6002 62.2317C15.3797 62.6297 15.5037 62.1442 15.4129 62.5544C15.3043 62.5965 15.3708 62.4457 15.2954 62.4125C15.2167 62.693 14.7458 63.2506 14.6371 63.2928C14.7247 63.1963 14.7368 63.0666 14.7701 62.9912C14.6736 62.9037 14.698 62.6443 14.5683 62.6321C14.6015 62.5568 14.5926 62.3727 14.7344 62.2552C14.7012 62.3306 14.6136 62.4271 14.5593 62.4481C14.6712 62.0923 14.668 62.406 14.8131 61.9747C14.7134 62.2009 14.5504 62.2641 14.4086 62.3817C14.2424 62.7586 14.5261 62.5235 14.5926 62.3727C14.3388 62.8461 13.9765 63.3617 13.7803 63.5003C13.6174 63.5635 13.8922 63.1444 13.8589 63.2198C13.7203 63.0236 13.2882 64.0037 13.3037 63.5603C13.4155 63.2044 13.6239 62.9361 13.7236 62.7099C13.8865 62.6467 13.7536 62.9483 13.829 62.9815L13.8201 62.7975C13.9076 62.701 14.0162 62.6589 13.983 62.7343C14.0616 62.4538 13.7147 62.5259 13.7179 62.2122C13.6304 62.3087 13.5428 62.4051 13.5307 62.5348L13.585 62.5138C13.5063 62.7942 13.3434 62.8575 13.3312 62.9871C13.2105 63.159 12.981 63.373 12.9721 63.189L13.1383 62.8121C13.1051 62.8874 13.114 63.0714 13.1805 62.9207C13.0597 63.0925 13.2834 62.3808 13.0297 62.8542L12.9511 63.1347C12.8303 63.3065 12.5887 63.6502 12.5466 63.5416C12.4347 63.8974 12.6009 63.5205 12.4558 63.9517C12.613 63.3908 12.6276 64.0725 12.7638 63.4573C12.5854 63.9639 12.7395 63.7167 12.6487 64.1268C12.7151 63.9761 12.7484 63.9007 12.7695 63.955C12.8238 63.9339 12.8027 63.8796 12.857 63.8585C12.8902 63.7832 12.8692 63.7288 12.9024 63.6535C13.0564 63.4062 13.1318 63.4395 13.2737 63.3219C13.2948 63.3762 13.2072 63.4727 13.1407 63.6235L13.3158 63.4306C13.1829 63.7321 13.1918 63.9161 13.0499 64.0336L13.1253 64.0669C13.1342 64.2509 13.101 64.3263 13.1885 64.2298C13.2096 64.2841 13.3969 63.9615 13.2972 64.1877L13.4933 64.0491L13.4601 64.1244C13.5566 64.212 13.9068 63.8262 13.8038 64.366C13.8581 64.3449 13.9456 64.2485 13.9878 64.3571L13.8881 64.5833C13.9967 64.5411 13.8848 64.897 14.0389 64.6497C13.773 65.2528 14.1985 64.9002 14.2074 65.0842L14.3404 64.7827C14.3615 64.837 14.4701 64.7949 14.633 64.7316L14.7871 64.4844C14.9622 64.2915 14.8381 64.777 14.9678 64.7892C14.8803 64.8857 14.9135 64.8103 14.8924 64.756C14.6476 65.4134 15.3602 64.512 15.2361 64.9975C15.3237 64.9011 15.3447 64.9554 15.3115 65.0308C15.2783 65.1062 15.2993 65.1605 15.245 65.1815C15.2783 65.1062 15.3115 65.0308 15.3115 65.0308C15.3115 65.0308 15.3658 65.0097 15.4744 64.9675L15.3204 65.2148C15.3082 65.3445 15.408 65.1183 15.5077 64.8922C15.562 64.8711 15.5952 64.7957 15.6495 64.7746C15.3958 65.248 15.8125 64.7114 15.5587 65.1848C15.7338 64.9919 15.8303 65.0794 16.1051 64.6603C16.0719 64.7357 16.0719 64.7357 16.0176 64.7568C16.0386 64.8111 16.0054 64.8865 16.1473 64.769L15.96 65.0916L16.3102 64.7058C16.2105 64.9319 16.144 65.0827 15.9689 65.2756C16.3402 64.9441 16.1318 65.2124 16.5031 64.8808L16.328 65.0738C16.3823 65.0527 16.6117 64.8387 16.4909 65.0105C16.2915 65.4629 16.8014 65.3275 16.7317 65.792C17.1273 65.2011 16.6863 65.9971 16.8946 65.7288C16.8071 65.8252 16.7738 65.9006 16.6863 65.9971C16.7406 65.976 16.7617 66.0303 16.7827 66.0846L16.7284 66.1057C16.6952 66.1811 16.7373 66.2897 16.683 66.3108C16.7916 66.2686 16.846 66.2475 16.8581 66.1179C16.9124 66.0968 16.9124 66.0968 17 66.0003C16.9335 66.1511 16.8249 66.1932 16.7916 66.2686C16.846 66.2475 16.9335 66.1511 16.8459 66.2476C16.8127 66.3229 16.7584 66.344 16.6709 66.4405C16.7462 66.4737 17.1297 66.0125 17.4256 65.6477C17.3258 65.8739 17.3802 65.8528 17.6096 65.6388C17.5431 65.7896 17.4766 65.9404 17.368 65.9825C17.3891 66.0368 17.4401 66.3294 17.6817 65.9858C17.6485 66.0611 17.7028 66.0401 17.7571 66.019C17.7028 66.0401 17.7239 66.0944 17.6695 66.1154L17.7782 66.0733C17.7992 66.1276 17.7992 66.1276 17.8746 66.1608L17.9079 66.0855C18.2581 65.6996 18.0165 66.0433 18.1462 66.0555L18.0919 66.0766C18.0011 66.4867 18.2337 65.959 18.164 66.4235L18.318 66.1763C18.7347 65.6397 18.2272 66.5864 18.4234 66.4478L18.4899 66.2971C18.5442 66.276 18.5109 66.3514 18.4777 66.4268C18.4445 66.5021 18.3569 66.5986 18.2904 66.7494C18.2361 66.7704 18.2361 66.7704 18.2151 66.7161C18.2361 66.7704 18.2029 66.8458 18.224 66.9001C18.1575 67.0509 18.091 67.2017 18.0367 67.2228C18.0035 67.2981 17.9492 67.3192 17.9492 67.3192C17.783 67.6961 18.2118 67.0298 18.3204 66.9877C18.1996 67.1595 17.9913 67.4278 18.0124 67.4822C17.9459 67.6329 18.4047 67.2049 18.4469 67.3136L18.3593 67.41L18.4469 67.3136C18.4469 67.3136 18.468 67.3679 18.4136 67.3889C18.4469 67.3136 18.5012 67.2925 18.4801 67.2382L18.6763 67.0996L18.5677 67.1417C18.622 67.1206 18.6552 67.0453 18.6552 67.0453C18.7095 67.0242 18.6098 67.2503 18.5977 67.38L18.5101 67.4765L18.6187 67.4343C18.6187 67.4343 18.673 67.4133 18.7606 67.3168C18.7274 67.3922 18.7273 67.3922 18.673 67.4133C18.7273 67.3922 18.7273 67.3922 18.7817 67.3711C18.7817 67.3711 18.7484 67.4465 18.6819 67.5973C18.8692 67.2747 18.9324 67.4376 18.9535 67.4919C18.9203 67.5673 18.9956 67.6005 19.05 67.5795C19.0378 67.7092 19.0921 67.6881 18.9592 67.9896C19.0467 67.8932 19.0589 67.7635 19.101 67.8721L19.1553 67.851L19.2307 67.8843L19.1975 67.9596C19.1975 67.9596 19.1975 67.9596 19.1642 68.035C19.1642 68.035 19.1642 68.035 19.2396 68.0683C19.2396 68.0683 19.2396 68.0683 19.2186 68.014C19.2396 68.0683 19.2939 68.0472 19.3483 68.0261C19.315 68.1015 19.2275 68.198 19.2607 68.1226C19.0856 68.3155 19.4447 68.1137 19.4569 67.984C19.478 68.0383 19.478 68.0383 19.4447 68.1137L19.3904 68.1347L19.4869 68.2223C19.4415 68.4274 19.4836 68.536 19.5712 68.4395C19.5922 68.4939 19.6465 68.4728 19.6798 68.3974C19.6676 68.5271 19.743 68.5603 19.8516 68.5182C19.7973 68.5392 19.7641 68.6146 19.7641 68.6146C20.1443 68.4671 19.5282 69.4561 20.2164 68.8141L20.2375 68.8684C20.2164 68.8141 20.2707 68.793 20.2496 68.7387L20.3039 68.7176L20.4126 68.6755C20.4336 68.7298 20.4004 68.8052 20.3882 68.9348C20.4636 68.9681 20.5179 68.947 20.6144 69.0346C20.6355 69.0889 20.7109 69.1221 20.753 69.2307L20.6533 69.4569C20.783 69.4691 20.843 69.9457 20.9848 69.8282C20.7821 70.5942 21.4971 70.5042 21.6114 70.9598L21.7233 70.6039C21.8408 70.7458 21.9373 70.8334 22.067 70.8455C22.067 70.8455 22.0126 70.8666 22.0337 70.9209C22.088 70.8998 22.088 70.8998 22.067 70.8455C22.1213 70.8244 22.1423 70.8788 22.1967 70.8577L21.7476 70.3446C21.8019 70.3235 21.8773 70.3567 21.9648 70.2603C21.9316 70.3356 21.823 70.3778 21.7897 70.4532C22.1156 70.3267 21.8829 70.8544 22.088 70.8998C22.088 70.8998 22.1423 70.8788 22.1213 70.8244C22.1423 70.8788 22.1423 70.8788 22.1634 70.9331L22.0759 71.0295C22.0759 71.0295 22.1302 71.0085 22.1845 70.9874C22.2655 71.5183 22.3952 71.5305 22.5371 71.413C22.7 71.3497 22.7665 71.199 22.8897 71.8386C22.9229 71.7632 22.944 71.8175 22.9651 71.8718C22.9318 71.9472 22.9318 71.9472 22.8986 72.0226C22.9529 72.0015 22.9318 71.9472 22.9862 71.9261C23.0072 71.9804 23.0283 72.0347 23.0494 72.089L23.0705 72.1433C23.0915 72.1977 23.0915 72.1977 23.1126 72.252L23.0583 72.273L22.9918 72.4238L23.0794 72.3274C23.1215 72.436 23.1637 72.5446 23.1304 72.62C23.0883 72.5114 23.1004 72.3817 23.0794 72.3274L23.1337 72.3063L23.0794 72.3274C23.0583 72.273 23.0583 72.273 23.0372 72.2187C23.0583 72.273 23.1337 72.3063 23.1669 72.2309L23.2091 72.3395L23.1547 72.3606L23.2091 72.3395L23.2569 72.9459C23.329 73.2928 23.269 72.8162 23.188 72.2852L23.2966 72.2431C23.4109 72.6986 23.3542 71.9083 23.5584 73.0788C23.5317 72.5268 23.7757 72.9945 23.6346 71.9869C23.7189 72.2042 23.8243 72.4757 23.7522 72.1288L24.0107 73.2782C24.0107 73.2782 23.9597 72.9856 23.9418 72.6176C23.8697 72.2706 23.873 71.9569 23.873 71.9569C24.0594 72.7594 24.1737 73.215 24.2847 73.9843C24.258 73.4323 24.2369 73.378 24.2701 73.3026C24.3034 73.2272 24.2612 73.1186 24.1591 72.5333L24.3244 73.2815C24.3455 73.3358 24.1713 72.4036 24.3698 73.0764C24.4331 73.2393 24.442 73.4233 24.5052 73.5863C24.6738 74.0208 24.707 73.9454 24.7824 73.9786C24.8367 73.9576 24.8578 74.0119 24.9332 74.0451C24.9543 74.0994 25.0296 74.1327 25.0507 74.187C25.0718 74.2413 25.0718 74.2413 25.0929 74.2956C25.0929 74.2956 25.1139 74.3499 25.1682 74.3288C24.6657 72.7116 25.4333 74.8509 25.0361 73.5052C25.1837 73.8854 25.2469 74.0484 25.3401 74.4496C25.3677 73.8765 25.6838 74.6912 25.4042 73.4874ZM27.6816 61.4807L27.6062 61.4475C27.4765 61.4353 27.5519 61.4685 27.6816 61.4807ZM12.4136 63.8431C12.4347 63.8974 12.4014 63.9728 12.4136 63.8431V63.8431ZM17.4929 64.3718C17.5804 64.2754 17.5472 64.3507 17.535 64.4804C17.4807 64.5015 17.4596 64.4472 17.4929 64.3718ZM19.3386 64.7804C19.393 64.7594 19.5891 64.6207 19.4473 64.7383C19.26 65.0609 19.3265 64.9101 19.3386 64.7804ZM24.7784 71.2307L24.8295 71.5233C24.8084 71.469 24.7452 71.306 24.682 71.1431L24.7363 71.122L24.7784 71.2307ZM22.7569 67.9533C22.778 68.0076 22.7447 68.083 22.7447 68.083C22.6361 68.1251 22.6361 68.1251 22.7569 67.9533ZM22.3978 68.1551C22.431 68.0797 22.5186 67.9833 22.5518 67.9079C22.5064 68.113 22.4732 68.1883 22.3978 68.1551ZM22.5874 68.6439C22.5874 68.6439 22.5664 68.5896 22.6207 68.5685C22.6539 68.4931 22.7082 68.4721 22.7415 68.3967C22.7625 68.451 22.7293 68.5264 22.7504 68.5807C22.6961 68.6018 22.6418 68.6228 22.5874 68.6439ZM22.9142 67.3923C22.9895 67.4256 23.0649 67.4588 23.0649 67.4588C23.1071 67.5674 23.0949 67.6971 23.116 67.7514C23.0528 67.5885 23.0649 67.4588 23.0406 67.7182L22.9652 67.685C22.9652 67.685 22.9652 67.685 22.9441 67.6307C22.9441 67.6307 22.9442 67.6307 22.9652 67.685L22.8898 67.6517C22.9231 67.5763 22.8809 67.4677 22.9142 67.3923ZM22.8599 67.4134C22.8809 67.4677 22.902 67.522 22.8599 67.4134V67.4134ZM23.6267 66.491C23.6478 66.5453 23.7232 66.5785 23.7232 66.5785L23.6478 66.5453C23.6267 66.491 23.6267 66.491 23.6267 66.491ZM23.6146 66.6207C23.5935 66.5663 23.5935 66.5663 23.6146 66.6207C23.5392 66.5874 23.5392 66.5874 23.6146 66.6207C23.5392 66.5874 23.5392 66.5874 23.5935 66.5664C23.5935 66.5664 23.5935 66.5663 23.6146 66.6207ZM23.9582 66.8622C23.8829 66.829 23.8829 66.829 23.8618 66.7747C23.9372 66.8079 23.9372 66.8079 23.9582 66.8622ZM23.9372 66.8079C23.8829 66.829 23.8829 66.829 23.9372 66.8079C23.8618 66.7747 23.8618 66.7747 23.8407 66.7204C23.8407 66.7204 23.895 66.6993 23.9161 66.7536L23.9372 66.8079ZM23.8407 66.7204C23.8196 66.6661 23.8196 66.6661 23.8407 66.7204C23.7864 66.7414 23.7653 66.6871 23.7653 66.6871L23.7443 66.6328L23.8407 66.7204C23.8407 66.7204 23.8196 66.6661 23.8407 66.7204ZM22.6839 68.7315L22.7714 68.635C22.7714 68.635 22.7715 68.635 22.7925 68.6893C22.7171 68.6561 22.6628 68.6772 22.6839 68.7315ZM23.0617 67.7725C23.0828 67.8268 23.0828 67.8268 23.1249 67.9355C23.1249 67.9355 23.1249 67.9355 23.0706 67.9565C23.0284 67.8479 23.0617 67.7725 23.0617 67.7725ZM23.116 67.7514C23.1371 67.8058 23.1581 67.8601 23.1581 67.8601C23.1581 67.8601 23.1581 67.8601 23.116 67.7514L23.1581 67.8601C23.1581 67.8601 23.1371 67.8058 23.116 67.7514ZM23.0495 67.9022C23.1249 67.9355 23.0706 67.9565 23.0495 67.9022C23.0917 68.0108 23.1549 68.1738 23.1427 68.3035C23.1427 68.3035 23.1427 68.3035 23.0884 68.3246C23.1216 68.2492 23.1549 68.1738 23.0495 67.9022ZM24.2516 69.8729C24.2516 69.8729 24.2727 69.9272 24.2516 69.8729V69.8729ZM24.3059 69.8518C24.2848 69.7975 24.2848 69.7975 24.3059 69.8518V69.8518ZM23.2781 68.8134C23.257 68.759 23.257 68.759 23.2781 68.8134C23.2781 68.8134 23.2991 68.8677 23.3202 68.922C23.2991 68.8677 23.2781 68.8134 23.2781 68.8134ZM23.5651 68.2646C23.6404 68.2978 23.6404 68.2978 23.6404 68.2978C23.7037 68.4607 23.7458 68.5694 23.7547 68.7534L23.7004 68.7745C23.6583 68.6658 23.6704 68.5361 23.6915 68.5904C23.595 68.5029 23.5529 68.3943 23.5651 68.2646ZM23.6194 68.2435C23.5983 68.1892 23.5983 68.1892 23.6194 68.2435C23.6526 68.1681 23.5983 68.1892 23.6194 68.2435C23.6194 68.2435 23.6737 68.2224 23.6194 68.2435ZM23.9476 68.9285C23.8844 68.7656 23.8423 68.6569 23.8212 68.6026C23.8633 68.7112 23.9055 68.8199 23.9266 68.8742C23.8633 68.7112 23.8212 68.6026 23.8001 68.5483C23.758 68.4397 23.8423 68.6569 23.9266 68.8742L23.779 68.494C23.779 68.494 23.8334 68.4729 23.8544 68.5272C23.8755 68.5815 23.9387 68.7445 23.9476 68.9285C24.002 68.9074 24.002 68.9074 23.9476 68.9285ZM23.7369 68.3854L23.7158 68.3311C23.6947 68.2767 23.7158 68.3311 23.7369 68.3854C23.7701 68.31 23.7912 68.3643 23.7912 68.3643C23.7369 68.3854 23.7369 68.3854 23.7369 68.3854ZM23.7701 68.31C23.7912 68.3643 23.7912 68.3643 23.7701 68.31V68.31ZM23.6737 68.2224C23.6737 68.2224 23.728 68.2014 23.7491 68.2557C23.728 68.2014 23.6737 68.2224 23.6737 68.2224ZM23.4897 68.2313L23.625 68.7412C23.5318 68.34 23.4564 68.3067 23.4897 68.2313ZM23.3745 68.9009L23.2392 68.391C23.3356 68.4786 23.3446 68.6626 23.3745 68.9009ZM23.3745 68.9009C23.3745 68.9009 23.3202 68.922 23.3745 68.9009C23.3113 68.738 23.2481 68.575 23.2392 68.391L23.3745 68.9009ZM23.2181 68.3367C23.1549 68.1738 23.167 68.0441 23.1249 67.9355L23.2181 68.3367ZM23.1849 68.4121C23.227 68.5207 23.1938 68.5961 23.2359 68.7047C23.2359 68.7047 23.2359 68.7047 23.2149 68.6504C23.2481 68.575 23.227 68.5207 23.1849 68.4121C23.2059 68.4664 23.1849 68.4121 23.1849 68.4121ZM24.652 70.9048L24.6731 70.9591L24.652 70.9048ZM24.1916 69.3962C24.1373 69.4173 24.1373 69.4173 24.1916 69.3962C24.1373 69.4173 24.1373 69.4173 24.1916 69.3962C24.1916 69.3962 24.1705 69.3419 24.1916 69.3962ZM24.1705 69.3419C24.0952 69.3087 24.0952 69.3087 24.1705 69.3419C24.1495 69.2876 24.1495 69.2876 24.1495 69.2876C24.1495 69.2876 24.1495 69.2876 24.1705 69.3419ZM23.993 68.7234L23.8334 68.4729C23.8334 68.4729 23.8334 68.4729 23.8877 68.4518C23.9088 68.5062 23.9509 68.6148 23.993 68.7234ZM23.7823 68.1803C23.728 68.2014 23.7069 68.147 23.6526 68.1681C23.6526 68.1681 23.6858 68.0927 23.6648 68.0384C23.6648 68.0384 23.7191 68.0174 23.7402 68.0717C23.7402 68.0717 23.7612 68.126 23.7823 68.1803ZM23.5894 68.0052C23.5894 68.0052 23.5351 68.0263 23.5894 68.0052C23.5351 68.0263 23.5351 68.0263 23.5894 68.0052C23.5351 68.0263 23.5351 68.0263 23.5894 68.0052ZM23.5561 68.0806C23.5018 68.1016 23.5018 68.1016 23.5561 68.0806C23.4808 68.0473 23.4808 68.0473 23.4597 67.993L23.514 67.9719C23.5351 68.0263 23.5351 68.0263 23.5561 68.0806ZM23.4597 67.993L23.5018 68.1016L23.4475 68.1227C23.4475 68.1227 23.4475 68.1227 23.4264 68.0684L23.3511 68.0352L23.3721 68.0895C23.3178 68.1106 23.2967 68.0562 23.2635 68.1316C23.2635 68.1316 23.3178 68.1106 23.3932 68.1438C23.4143 68.1981 23.4143 68.1981 23.4143 68.1981C23.4986 68.4154 23.5075 68.5994 23.5707 68.7623C23.5707 68.7623 23.5707 68.7623 23.5164 68.7834C23.4532 68.6204 23.4864 68.545 23.5286 68.6537C23.3721 68.0895 23.4443 68.4364 23.5164 68.7834L23.4621 68.8044C23.441 68.7501 23.441 68.7501 23.4199 68.6958C23.3778 68.5872 23.3356 68.4786 23.3024 68.554C23.3235 68.6083 23.2902 68.6837 23.3535 68.8466C23.2902 68.6837 23.2813 68.4996 23.2181 68.3367L23.2724 68.3156L23.2181 68.3367C23.1549 68.1738 23.1671 68.0441 23.146 67.9898C23.2546 67.9476 23.33 67.9809 23.4597 67.993ZM23.2003 67.9687C23.2214 68.023 23.2092 68.1527 23.2724 68.3156L23.2003 67.9687C23.2003 67.9687 23.1792 67.9144 23.2003 67.9687ZM23.0495 67.9022C23.0074 67.7936 22.9863 67.7393 22.9863 67.7393C23.0617 67.7725 23.0284 67.8479 23.0495 67.9022ZM23.0495 67.9022C23.0917 68.0108 23.1006 68.1949 23.1095 68.3789C23.0463 68.2159 23.0374 68.0319 23.0495 67.9022ZM23.1516 68.4875C23.1727 68.5418 23.1938 68.5961 23.1395 68.6172C23.1395 68.6172 23.1395 68.6172 23.1516 68.4875C23.1184 68.5629 23.1727 68.5418 23.1516 68.4875ZM23.1062 68.6926L23.0852 68.6383L23.1062 68.6926ZM24.652 70.9048C24.652 70.9048 24.7063 70.8837 24.7274 70.938L24.7574 71.1763L24.7031 71.1974C24.6941 71.0134 24.6731 70.9591 24.652 70.9048ZM25.1627 69.6443C25.1838 69.6986 25.2381 69.6775 25.2592 69.7318C25.2049 69.7529 25.1295 69.7197 25.0752 69.7408C24.9698 69.4692 25.0663 69.5567 25.1627 69.6443ZM25.3889 69.744L25.3678 69.6897C25.4764 69.6475 25.4975 69.7019 25.3889 69.744ZM23.9452 68.1171C23.8909 68.1381 23.8699 68.0838 23.8699 68.0838C23.9242 68.0627 23.9242 68.0628 23.9452 68.1171ZM23.5383 67.7125C23.5383 67.7125 23.484 67.7336 23.5383 67.7125V67.7125ZM23.3876 67.6461L23.3122 67.6128C23.3332 67.6672 23.3332 67.6671 23.3876 67.6461C23.4086 67.7004 23.4086 67.7004 23.3876 67.6461C23.484 67.7336 23.5051 67.7879 23.4297 67.7547L23.2035 67.655C23.0949 67.6971 23.3754 67.7758 23.4508 67.809C23.4508 67.809 23.3965 67.8301 23.3211 67.7968C23.3211 67.7968 23.1914 67.7847 23.1371 67.8058L23.0949 67.6971L23.2457 67.7636L23.0738 67.6428L23.0228 67.3502C23.1614 67.5464 23.2579 67.6339 23.3876 67.6461ZM22.9652 67.685C22.9863 67.7393 23.0074 67.7936 22.9741 67.869C22.9741 67.869 22.9741 67.869 22.9198 67.8901C22.9531 67.8147 22.932 67.7604 22.9652 67.685ZM22.9952 67.9233C23.0374 68.0319 23.0041 68.1073 23.0463 68.2159C23.0673 68.2702 23.0341 68.3456 23.0552 68.3999C23.0673 68.2702 23.0041 68.1073 22.9952 67.9233ZM22.9133 68.5175L22.859 68.5385C22.8379 68.4842 22.8501 68.3545 22.829 68.3002C22.8833 68.2791 22.8833 68.2791 22.9376 68.2581C22.9255 68.3878 22.8922 68.4632 22.9133 68.5175ZM23.8973 71.6975C23.9184 71.7518 23.9394 71.8062 23.9394 71.8062C23.9184 71.7518 23.8973 71.6975 23.8973 71.6975ZM25.1651 70.4557C25.2405 70.489 25.2405 70.489 25.1651 70.4557C25.1651 70.4557 25.1108 70.4768 25.0565 70.4979C24.9933 70.3349 25.153 70.5854 25.1441 70.4014L25.1651 70.4557ZM25.8501 70.1274C25.829 70.0731 25.829 70.0731 25.8501 70.1274C25.7958 70.1485 25.7204 70.1153 25.6661 70.1364C25.3856 70.0577 25.4189 69.9823 25.2681 69.9159C25.3224 69.8948 25.4189 69.9823 25.5486 69.9945L25.3224 69.8948C25.4521 69.9069 25.5818 69.9191 25.7115 69.9313C25.7326 69.9856 25.829 70.0731 25.8501 70.1274ZM26.0747 68.2906C26.0536 68.2363 26.0536 68.2363 26.0747 68.2906V68.2906ZM24.1172 64.051C24.0418 64.0178 23.8911 63.9513 24.0751 63.9424C24.3977 64.1297 24.2469 64.0632 24.1172 64.051ZM24.2024 63.1432C24.1481 63.1642 24.1481 63.1642 24.2024 63.1432V63.1432ZM24.8971 61.8737C24.876 61.8194 24.9514 61.8527 24.9514 61.8527C25.0268 61.8859 25.0479 61.9402 25.1233 61.9735L24.8971 61.8737ZM25.0122 61.2042C25.0876 61.2374 25.0876 61.2374 25.0876 61.2374L25.0122 61.2042ZM25.0665 61.1831C25.1209 61.162 25.1209 61.162 25.0665 61.1831C25.1209 61.162 25.1419 61.2164 25.2173 61.2496L25.0665 61.1831ZM25.2084 61.0656C25.3381 61.0777 25.4135 61.111 25.5099 61.1985C25.5099 61.1985 25.51 61.1985 25.4556 61.2196C25.3049 61.1531 25.2295 61.1199 25.2084 61.0656ZM24.906 62.0578C24.9603 62.0367 24.9603 62.0367 24.906 62.0578C24.9814 62.091 25.0779 62.1786 25.0779 62.1786C25.0025 62.1453 24.9814 62.091 24.906 62.0578C24.8517 62.0788 24.8517 62.0788 24.8728 62.1331C24.8185 62.1542 24.8185 62.1542 24.8185 62.1542C24.7431 62.121 24.5923 62.0545 24.5923 62.0545C24.5923 62.0545 24.6466 62.0334 24.722 62.0667C24.6466 62.0334 24.6466 62.0334 24.5712 62.0002C24.5712 62.0002 24.5712 62.0002 24.5502 61.9459C24.6799 61.9581 24.8306 62.0245 24.906 62.0578ZM23.8887 63.1399C23.943 63.1188 24.0727 63.131 24.1481 63.1642L23.8887 63.1399ZM23.7071 63.9602C23.8368 63.9724 24.0418 64.0178 24.1172 64.051C24.0629 64.0721 24.0086 64.0932 24.1383 64.1053C24.0086 64.0932 23.9332 64.0599 23.9332 64.0599C23.8578 64.0267 23.7824 63.9935 24.0208 63.9635C23.9121 64.0056 23.8368 63.9724 23.7071 63.9602ZM23.754 65.6917C23.6997 65.7128 23.6786 65.6585 23.6032 65.6252L23.754 65.6917ZM23.3738 65.8392C23.4492 65.8725 23.4703 65.9268 23.5668 66.0143L23.416 65.9478C23.3949 65.8935 23.3195 65.8603 23.3738 65.8392C23.3195 65.8603 23.3195 65.8603 23.3738 65.8392C23.3195 65.8603 23.3738 65.8392 23.3738 65.8392ZM23.262 66.1951C23.2409 66.1408 23.1655 66.1075 23.1444 66.0532C23.1987 66.0321 23.253 66.0111 23.2863 65.9357L23.4581 66.0565L23.2652 65.8814C23.2652 65.8814 23.2652 65.8814 23.3195 65.8603C23.4914 65.9811 23.8561 66.277 23.8018 66.298C23.7264 66.2648 23.651 66.2316 23.5335 66.0897L23.7475 66.3191C23.7475 66.3191 23.5757 66.1983 23.63 66.1773L23.6932 66.3402L23.6721 66.2859L23.6932 66.3402C23.6932 66.3402 23.6932 66.3402 23.6389 66.3613C22.9215 65.6398 23.8739 66.645 23.3916 66.2072L23.262 66.1951ZM23.497 66.4788C23.4006 66.3912 23.4759 66.4245 23.497 66.4788V66.4788ZM23.4305 66.6296L23.5059 66.6628C23.527 66.7171 23.527 66.7171 23.5481 66.7714C23.4938 66.7925 23.4727 66.7382 23.4305 66.6296ZM23.5813 66.696C23.6024 66.7504 23.6024 66.7504 23.6024 66.7504C23.6024 66.7504 23.6024 66.7504 23.5813 66.696ZM23.4273 66.9433C23.5027 66.9765 23.5027 66.9765 23.4484 66.9976C23.4484 66.9976 23.4484 66.9976 23.4273 66.9433ZM23.4905 67.1062C23.587 67.1938 23.608 67.2481 23.6502 67.3567C23.608 67.2481 23.5659 67.1394 23.4905 67.1062ZM23.7345 67.5739C23.7556 67.6283 23.7766 67.6826 23.8188 67.7912C23.7645 67.8123 23.7434 67.758 23.6891 67.779C23.668 67.7247 23.647 67.6704 23.6348 67.8001C23.6137 67.7458 23.5926 67.6915 23.5505 67.5829C23.6048 67.5618 23.6802 67.595 23.7345 67.5739ZM23.5294 67.5285C23.5505 67.5829 23.5926 67.6915 23.6137 67.7458L23.4962 67.6039C23.4962 67.6039 23.4962 67.6039 23.4419 67.625L23.0982 67.3834C23.2489 67.4499 23.3786 67.4621 23.5294 67.5285ZM22.7301 67.4012C22.7845 67.3802 22.7845 67.3802 22.7301 67.4012C22.7845 67.3802 22.7845 67.3802 22.7301 67.4012C22.7845 67.3802 22.7845 67.3802 22.7301 67.4012C22.8055 67.4345 22.8055 67.4345 22.8055 67.4345L22.8144 67.6185L22.8355 67.6728L22.8566 67.7271C22.8144 67.6185 22.8234 67.8025 22.8201 68.1162L22.7658 68.1373C22.7447 68.083 22.778 68.0076 22.7569 67.9533C22.7569 67.9533 22.8112 67.9322 22.7901 67.8779L22.7358 67.899C22.7269 67.715 22.718 67.5309 22.6969 67.4766C22.6848 67.6063 22.6726 67.736 22.6815 67.92C22.6272 67.9411 22.6483 67.9954 22.594 68.0165C22.6183 67.7571 22.6426 67.4977 22.6337 67.3137C22.6459 67.184 22.6037 67.0754 22.5826 67.0211L22.6369 67C22.7545 67.1419 22.7755 67.1962 22.7301 67.4012ZM22.7456 66.9578C22.7666 67.0122 22.7666 67.0122 22.7456 66.9578V66.9578ZM22.607 66.7617C22.628 66.816 22.628 66.816 22.5948 66.8914C22.628 66.816 22.607 66.7617 22.607 66.7617ZM22.5826 67.0211C22.6369 67 22.5826 67.0211 22.5826 67.0211C22.6126 67.2594 22.6426 67.4977 22.5972 67.7028C22.5429 67.7239 22.4343 67.766 22.5551 67.5942C22.5007 67.6152 22.5007 67.6152 22.4675 67.6906C22.4675 67.6906 22.4464 67.6363 22.5007 67.6152C22.5007 67.6152 22.5551 67.5942 22.6094 67.5731C22.6969 67.4766 22.5883 67.5188 22.534 67.5399C22.534 67.5399 22.5129 67.4855 22.5672 67.4645C22.6215 67.4434 22.6005 67.3891 22.7091 67.3469C22.6548 67.368 22.6215 67.4434 22.6215 67.4434C22.6337 67.3137 22.6248 67.1297 22.658 67.0543C22.5283 67.0421 22.5283 67.0421 22.5826 67.0211C22.5494 67.0965 22.5162 67.1718 22.504 67.3015C22.4829 67.2472 22.5705 67.1508 22.5826 67.0211ZM22.0695 67.4701L22.2114 67.3526C22.2114 67.3526 22.2324 67.4069 22.1781 67.428C22.1781 67.428 22.1238 67.4491 22.0695 67.4701ZM22.4529 67.0089C22.5162 67.1718 22.4075 67.214 22.4197 67.0843L22.4529 67.0089C22.4197 67.0843 22.4197 67.0843 22.4529 67.0089ZM22.3354 66.867C22.3354 66.867 22.3565 66.9214 22.3022 66.9424C22.3565 66.9214 22.3565 66.9214 22.3354 66.867ZM22.2446 67.2772C22.1903 67.2983 22.136 67.3194 22.136 67.3194L22.2446 67.2772ZM22.0873 67.8381C22.1538 67.6874 21.9787 67.8803 22.0452 67.7295C22.0784 67.6541 22.1327 67.6331 22.187 67.612C22.1749 67.7417 22.1084 67.8925 22.0962 68.0222C22.0419 68.0432 21.9876 68.0643 21.9333 68.0854L21.9665 68.01L21.9333 68.0854C21.879 68.1065 21.8247 68.1275 21.8036 68.0732L21.8368 67.9978C21.8701 67.9224 21.9787 67.8803 22.0873 67.8381ZM21.9852 67.2529C21.9309 67.274 21.9309 67.274 21.9852 67.2529C21.9641 67.1986 21.9641 67.1986 21.9852 67.2529C21.9641 67.1986 21.9641 67.1986 21.9852 67.2529ZM21.8377 66.8727C21.8588 66.927 21.8044 66.9481 21.8377 66.8727C21.8377 66.8727 21.8044 66.9481 21.8377 66.8727ZM21.1138 66.7786C21.1803 66.6279 21.2014 66.6822 21.31 66.64C21.2224 66.7365 21.1892 66.8119 21.1138 66.7786ZM17.5333 66.7307C17.5666 66.6553 17.5666 66.6553 17.5333 66.7307C17.5666 66.6553 17.5123 66.6764 17.5333 66.7307ZM18.887 67.6427C18.9413 67.6216 18.9746 67.5462 19.0832 67.5041C19.0289 67.5252 18.9413 67.6216 18.887 67.6427C18.9413 67.6216 18.9413 67.6216 18.887 67.6427ZM19.1343 67.7967C19.1886 67.7756 19.1343 67.7967 19.1343 67.7967C19.1764 67.9053 19.1221 67.9264 19.1343 67.7967ZM22.1634 70.9331C22.2177 70.912 22.1634 70.9331 22.1634 70.9331C22.2177 70.912 22.2388 70.9663 22.2388 70.9663L22.2056 71.0417C22.1845 70.9874 22.1634 70.9331 22.1634 70.9331ZM22.2056 71.0417L22.2599 71.0206C22.2809 71.0749 22.2266 71.096 22.2056 71.0417ZM23.3177 72.2974C23.2966 72.2431 23.2966 72.2431 23.3298 72.1677C23.3088 72.1134 23.3631 72.0923 23.3209 71.9837C23.3209 71.9837 23.3209 71.9837 23.3753 71.9626C23.4174 72.0712 23.3842 72.1466 23.4052 72.2009L23.3177 72.2974ZM23.7011 71.8361C23.7433 71.9448 23.7643 71.9991 23.689 71.9658C23.7433 71.9448 23.7222 71.8905 23.7011 71.8361Z" fill="#CBECFF"/>
</svg>
