<svg width="14" height="14" viewBox="0 0 14 14" fill="none" xmlns="http://www.w3.org/2000/svg">
<path d="M0.382872 5.92291C0.135027 5.25345 -0.0444466 4.56974 0.00968037 3.8433C0.0438658 3.39604 0.211944 3.0143 0.539555 2.70093C0.895654 2.36478 1.23181 2.01153 1.58221 1.66967C2.03802 1.21956 2.61063 1.22241 3.06643 1.66967C3.34846 1.946 3.62764 2.22803 3.90682 2.51007C4.17746 2.7807 4.45094 3.05133 4.72158 3.32482C5.19733 3.80626 5.20017 4.36748 4.72443 4.84607C4.38257 5.18793 4.04357 5.53263 3.69601 5.86879C3.60485 5.9571 3.59631 6.03117 3.64474 6.14227C3.87264 6.68924 4.2031 7.17638 4.57344 7.63219C5.31982 8.5495 6.16306 9.36425 7.16869 9.99383C7.3852 10.1277 7.62165 10.2274 7.8467 10.3499C7.9635 10.4126 8.04042 10.3927 8.13443 10.2958C8.47343 9.94541 8.82099 9.6007 9.16854 9.256C9.62434 8.80589 10.1941 8.80304 10.6499 9.256C11.2083 9.80866 11.7638 10.3642 12.3164 10.9225C12.7808 11.3897 12.778 11.9623 12.3108 12.4324C11.9945 12.7515 11.6612 13.0534 11.365 13.3867C10.9319 13.871 10.385 14.0306 9.76393 13.9964C8.85802 13.948 8.02332 13.646 7.21712 13.2557C5.42808 12.3868 3.90113 11.1818 2.62202 9.66053C1.67622 8.5324 0.895654 7.30743 0.382872 5.92291ZM13.3648 6.94278C13.7314 6.94278 14.0319 6.64467 13.9973 6.27972C13.6829 2.96465 11.0357 0.317502 7.72064 0.00308586C7.35569 -0.0315277 7.05758 0.268973 7.05758 0.635562C7.05758 1.00215 7.3561 1.29523 7.72018 1.33803C10.3028 1.64167 12.3587 3.69753 12.6623 6.28018C12.7051 6.64427 12.9982 6.94278 13.3648 6.94278ZM10.1428 6.28371C10.2185 6.6424 10.5084 6.94278 10.875 6.94278C11.2416 6.94278 11.5439 6.64386 11.49 6.28126C11.2011 4.33952 9.66084 2.79924 7.7191 2.5104C7.3565 2.45646 7.05758 2.75882 7.05758 3.1254C7.05758 3.49199 7.35796 3.78186 7.71665 3.85754C8.30811 3.98234 8.85111 4.2751 9.28819 4.71218C9.72526 5.14925 10.018 5.69226 10.1428 6.28371Z" fill="#BED8E8"/>
</svg>
