<svg width="25" height="22" viewBox="0 0 25 22" fill="none" xmlns="http://www.w3.org/2000/svg">
<path d="M10.0932 14.2307C9.91098 14.4035 9.80043 14.6386 9.78356 14.8892L9.4681 19.5747C9.42922 20.1521 9.93922 20.6479 10.3578 20.2482C10.4225 20.1864 10.4858 20.12 10.5515 20.0511L12.703 17.8799C13.0585 17.5211 13.6256 17.4837 14.0251 17.7927L19.0736 21.6967C20.1278 22.3171 20.8705 21.9904 21.1549 20.6726L24.9277 2.00428C24.9278 2.00379 24.928 2.00335 24.9284 2.00299C24.9287 2.00263 24.929 2.00216 24.9291 2.00168C25.263 0.356646 24.3652 -0.28659 23.3382 0.117045L1.16063 9.0831C-0.352948 9.7035 -0.330031 10.5945 0.903332 10.9982L6.1136 12.7095C6.40394 12.8049 6.72195 12.7622 6.97692 12.5938L19.7434 4.15842C20.3632 3.72503 20.9267 3.96483 20.4632 4.39822L10.0932 14.2307Z" fill="#52BFFF"/>
</svg>
