<svg width="38" height="38" viewBox="0 0 38 38" fill="none" xmlns="http://www.w3.org/2000/svg">
<rect width="38" height="38" rx="19" transform="matrix(-1 0 0 1 38 0)" fill="url(#paint0_linear_14848_3296)"/>
<g clip-path="url(#clip0_14848_3296)">
<path d="M11.4384 17.7871C11.1557 17.0236 10.951 16.2438 11.0127 15.4153C11.0517 14.9052 11.2434 14.4698 11.6171 14.1124C12.0232 13.7291 12.4066 13.3262 12.8062 12.9363C13.3261 12.423 13.9791 12.4262 14.4989 12.9363C14.8206 13.2515 15.139 13.5731 15.4574 13.8948C15.7661 14.2034 16.078 14.5121 16.3866 14.824C16.9292 15.3731 16.9325 16.0131 16.3899 16.559C16 16.9488 15.6134 17.342 15.217 17.7254C15.113 17.8261 15.1033 17.9106 15.1585 18.0373C15.4184 18.6611 15.7953 19.2167 16.2177 19.7365C17.0689 20.7827 18.0306 21.7119 19.1775 22.4299C19.4245 22.5826 19.6941 22.6964 19.9508 22.8361C20.084 22.9075 20.1717 22.8848 20.279 22.7743C20.6656 22.3747 21.062 21.9816 21.4584 21.5884C21.9782 21.0751 22.628 21.0719 23.1478 21.5884C23.7847 22.2188 24.4182 22.8523 25.0485 23.4891C25.5781 24.022 25.5749 24.675 25.042 25.2111C24.6814 25.575 24.3012 25.9194 23.9633 26.2995C23.4695 26.8519 22.8457 27.0338 22.1374 26.9948C21.1042 26.9396 20.1522 26.5952 19.2328 26.1501C17.1924 25.1591 15.4509 23.7848 13.9921 22.0498C12.9134 20.7632 12.0232 19.3661 11.4384 17.7871ZM26.2442 18.9502C26.6623 18.9502 27.005 18.6102 26.9655 18.194C26.6069 14.4132 23.5879 11.3942 19.807 11.0356C19.3908 10.9961 19.0508 11.3388 19.0508 11.7569C19.0508 12.175 19.3913 12.5092 19.8065 12.5581C22.752 12.9044 25.0967 15.2491 25.443 18.1946C25.4918 18.6098 25.8261 18.9502 26.2442 18.9502ZM22.5695 18.1986C22.6558 18.6077 22.9864 18.9502 23.4045 18.9502C23.8226 18.9502 24.1674 18.6093 24.1059 18.1958C23.7765 15.9812 22.0198 14.2246 19.8053 13.8951C19.3917 13.8336 19.0508 14.1785 19.0508 14.5966C19.0508 15.0146 19.3934 15.3452 19.8025 15.4315C20.477 15.5739 21.0963 15.9078 21.5948 16.4063C22.0933 16.9047 22.4272 17.524 22.5695 18.1986Z" fill="white"/>
</g>
<defs>
<linearGradient id="paint0_linear_14848_3296" x1="38" y1="42.5" x2="6.5" y2="2" gradientUnits="userSpaceOnUse">
<stop offset="0.082217" stop-color="#B1E2FF"/>
<stop offset="1" stop-color="#68C7FF"/>
</linearGradient>
<clipPath id="clip0_14848_3296">
<rect width="16" height="16" fill="white" transform="translate(11 11)"/>
</clipPath>
</defs>
</svg>
